<?xml version="1.0" encoding="UTF-8" standalone="no"?>
<svg
   xmlns:dc="http://purl.org/dc/elements/1.1/"
   xmlns:cc="http://creativecommons.org/ns#"
   xmlns:rdf="http://www.w3.org/1999/02/22-rdf-syntax-ns#"
   xmlns:svg="http://www.w3.org/2000/svg"
   xmlns="http://www.w3.org/2000/svg"
   xmlns:sodipodi="http://sodipodi.sourceforge.net/DTD/sodipodi-0.dtd"
   xmlns:inkscape="http://www.inkscape.org/namespaces/inkscape"
   height="16"
   viewBox="0 0 19.2 19.2"
   width="16"
   version="1.1"
   id="svg8"
   sodipodi:docname="bg_minus1_layer.svg"
   inkscape:version="0.92.5 (2060ec1f9f, 2020-04-08)">
  <sodipodi:namedview
     pagecolor="#ffffff"
     bordercolor="#666666"
     borderopacity="1"
     objecttolerance="10"
     gridtolerance="10"
     guidetolerance="10"
     inkscape:pageopacity="0"
     inkscape:pageshadow="2"
     inkscape:window-width="1405"
     inkscape:window-height="981"
     id="namedview9"
     showgrid="false"
     inkscape:zoom="32"
     inkscape:cx="8.6818361"
     inkscape:cy="8.7760419"
     inkscape:window-x="739"
     inkscape:window-y="575"
     inkscape:window-maximized="0"
     inkscape:current-layer="svg8"
     scale-x="1.2"
     showguides="false"
     inkscape:snap-bbox="true"
     inkscape:bbox-nodes="true"
     inkscape:bbox-paths="true"
     inkscape:snap-bbox-edge-midpoints="true"
     inkscape:snap-bbox-midpoints="true"
     inkscape:snap-object-midpoints="true"
     inkscape:snap-text-baseline="true" />
  <metadata
     id="metadata14">
    <rdf:RDF>
      <cc:Work
         rdf:about="">
        <dc:format>image/svg+xml</dc:format>
        <dc:type
           rdf:resource="http://purl.org/dc/dcmitype/StillImage" />
        <dc:title></dc:title>
      </cc:Work>
    </rdf:RDF>
  </metadata>
  <defs
     id="defs12" />
  <text
     xml:space="preserve"
     style="font-style:normal;font-weight:normal;font-size:20.80000114px;line-height:1.25;font-family:sans-serif;letter-spacing:0px;word-spacing:0px;fill:#000000;fill-opacity:1;stroke:none;stroke-width:1.20000005"
     x="3.1875"
     y="5.25"
     id="text982"><tspan
       sodipodi:role="line"
       id="tspan980"
       x="3.1875"
       y="23.653126"
       style="stroke-width:1.20000005" /></text>
  <rect
     style="fill:none;stroke:#ff6600;stroke-width:1.20000005"
     id="rect4724"
     width="19.200001"
     height="19.200001"
     x="-3.8146973e-07"
     y="-3.8146973e-07" />
  <g
     aria-label="B1"
     style="font-style:normal;font-variant:normal;font-weight:normal;font-stretch:normal;font-size:12.80000019px;line-height:1.25;font-family:sans-serif;-inkscape-font-specification:'sans-serif, Normal';font-variant-ligatures:normal;font-variant-caps:normal;font-variant-numeric:normal;font-feature-settings:normal;text-align:center;letter-spacing:0px;word-spacing:0px;writing-mode:lr-tb;text-anchor:middle;fill:#000000;fill-opacity:1;stroke:none;stroke-width:1.20000005"
     id="text4728">
    <path
       d="m 3.5531247,9.8031246 v 3.4187504 h 2.0250001 q 1.01875,0 1.50625,-0.41875 0.49375,-0.425 0.49375,-1.29375 0,-0.875 -0.49375,-1.2875 -0.4875,-0.4187504 -1.50625,-0.4187504 z m 0,-3.8375001 v 2.8125 h 1.86875 q 0.9250001,0 1.3750001,-0.34375 0.45625,-0.35 0.45625,-1.0625 0,-0.70625 -0.45625,-1.05625 -0.45,-0.35 -1.3750001,-0.35 z m -1.2625,-1.0375 h 3.225 q 1.4437501,0 2.2250001,0.6 0.78125,0.6 0.78125,1.70625 0,0.85625 -0.4,1.3625 -0.4,0.50625 -1.175,0.63125 0.93125,0.2 1.44375,0.8375005 0.51875,0.63125 0.51875,1.58125 0,1.25 -0.85,1.93125 -0.85,0.68125 -2.41875,0.68125 H 2.2906247 Z"
       style="fill:#ff6600;stroke-width:1.20000005"
       id="path4763" />
    <path
       d="m 11.403125,13.196875 h 2.0625 V 6.0781245 l -2.24375,0.45 v -1.15 l 2.23125,-0.45 h 1.2625 v 8.2687505 h 2.0625 v 1.0625 h -5.375 z"
       style="fill:#ff6600;stroke-width:1.20000005"
       id="path4765" />
  </g>
</svg>
